<svg xmlns="http://www.w3.org/2000/svg" viewBox="0 0 120 130">
  <defs>
    <linearGradient id="lg-gold" x1="0" y1="0" x2="1" y2="1">
      <stop offset="0" stop-color="#fde68a"/>
      <stop offset="0.5" stop-color="#f59e0b"/>
      <stop offset="1" stop-color="#b45309"/>
    </linearGradient>
    <linearGradient id="lg-green" x1="0" y1="0" x2="0" y2="1">
      <stop offset="0" stop-color="#15803d"/>
      <stop offset="1" stop-color="#052e16"/>
    </linearGradient>
  </defs>
  <!-- Étoile -->
  <path d="M60 2.5l3.4 6.9 7.6 1.1-5.5 5.4 1.3 7.6L60 20l-6.8 3.5 1.3-7.6-5.5-5.4 7.6-1.1z" fill="url(#lg-gold)" stroke="#78350f" stroke-width="1" stroke-linejoin="round"/>
  <!-- Écusson -->
  <path d="M60 24l46 15v40c0 26-20.6 39.8-46 47C34.6 118.8 14 105 14 79V39z" fill="url(#lg-green)" stroke="url(#lg-gold)" stroke-width="6" stroke-linejoin="round"/>
  <!-- Ballon -->
  <circle cx="60" cy="72" r="27" fill="#f8fafc" stroke="#0f172a" stroke-width="2.5"/>
  <path d="M60 62l9.5 6.9-3.6 11.2H54.1L50.5 69z" fill="#0f172a"/>
  <g stroke="#0f172a" stroke-width="2.5" stroke-linecap="round">
    <line x1="60" y1="62" x2="60" y2="45.5"/>
    <line x1="69.5" y1="68.9" x2="85.2" y2="63.7"/>
    <line x1="65.9" y1="80.1" x2="76.4" y2="93.4"/>
    <line x1="54.1" y1="80.1" x2="43.6" y2="93.4"/>
    <line x1="50.5" y1="68.9" x2="34.8" y2="63.7"/>
  </g>
  <path d="M41 55a25 25 0 0 1 30-8" fill="none" stroke="#ffffff" stroke-opacity="0.55" stroke-width="4" stroke-linecap="round"/>
</svg>
